<svg width="26" height="20" viewBox="0 0 26 20" fill="none" xmlns="http://www.w3.org/2000/svg">
<path d="M23 0H3C1.625 0 0.5125 1.125 0.5125 2.5L0.5 17.5C0.5 18.875 1.625 20 3 20H23C24.375 20 25.5 18.875 25.5 17.5V2.5C25.5 1.125 24.375 0 23 0ZM22.5 5.3125L13.6625 10.8375C13.2625 11.0875 12.7375 11.0875 12.3375 10.8375L3.5 5.3125C3.37466 5.24214 3.2649 5.14708 3.17736 5.03307C3.08982 4.91906 3.02633 4.78847 2.99072 4.64921C2.95511 4.50995 2.94813 4.36492 2.9702 4.22288C2.99226 4.08085 3.04292 3.94477 3.1191 3.82288C3.19528 3.70099 3.29541 3.59582 3.41341 3.51374C3.53141 3.43167 3.66484 3.37439 3.80562 3.34537C3.9464 3.31636 4.0916 3.31621 4.23244 3.34493C4.37328 3.37366 4.50683 3.43067 4.625 3.5125L13 8.75L21.375 3.5125C21.4932 3.43067 21.6267 3.37366 21.7676 3.34493C21.9084 3.31621 22.0536 3.31636 22.1944 3.34537C22.3352 3.37439 22.4686 3.43167 22.5866 3.51374C22.7046 3.59582 22.8047 3.70099 22.8809 3.82288C22.9571 3.94477 23.0077 4.08085 23.0298 4.22288C23.0519 4.36492 23.0449 4.50995 23.0093 4.64921C22.9737 4.78847 22.9102 4.91906 22.8226 5.03307C22.7351 5.14708 22.6253 5.24214 22.5 5.3125Z" fill="#2B5278"/>
</svg>
