<svg width="22" height="28" viewBox="0 0 22 28" fill="none" xmlns="http://www.w3.org/2000/svg">
<path d="M11 0.875C8.26596 0.878225 5.6448 1.96575 3.71153 3.89902C1.77826 5.83229 0.690736 8.45344 0.687511 11.1875C0.684236 13.4218 1.41406 15.5954 2.76501 17.375C2.76501 17.375 3.04626 17.7453 3.0922 17.7987L11 27.125L18.9116 17.7941C18.9528 17.7444 19.235 17.375 19.235 17.375L19.2359 17.3722C20.5862 15.5934 21.3157 13.4207 21.3125 11.1875C21.3093 8.45344 20.2218 5.83229 18.2885 3.89902C16.3552 1.96575 13.7341 0.878225 11 0.875ZM11 14.9375C10.2583 14.9375 9.53331 14.7176 8.91662 14.3055C8.29994 13.8935 7.81929 13.3078 7.53546 12.6226C7.25163 11.9373 7.17737 11.1833 7.32207 10.4559C7.46676 9.72848 7.82391 9.0603 8.34836 8.53585C8.87281 8.0114 9.54099 7.65425 10.2684 7.50955C10.9959 7.36486 11.7499 7.43912 12.4351 7.72295C13.1203 8.00678 13.706 8.48743 14.118 9.10411C14.5301 9.7208 14.75 10.4458 14.75 11.1875C14.7488 12.1817 14.3533 13.1348 13.6503 13.8378C12.9473 14.5408 11.9942 14.9363 11 14.9375Z" fill="#2B5278"/>
</svg>
